<?xml version="1.0" encoding="UTF-8"?>
<svg width="40" height="40" viewBox="0 0 40 40" fill="none" xmlns="http://www.w3.org/2000/svg">
    <!-- Background circle -->
    <circle cx="20" cy="20" r="18" fill="#1E1E1E" />

    <!-- Brain-inspired shape for AI representation -->
    <path d="M20 6C15.5 6 12 9.5 12 14C12 17 14.5 19.5 18 20.5V26H16V30H24V26H22V20.5C25.5 19.5 28 17 28 14C28 9.5 24.5 6 20 6Z" fill="#4A9EFF" />
    <circle cx="16" cy="14" r="2" fill="#FFFFFF" />
    <circle cx="24" cy="14" r="2" fill="#FFFFFF" />
    <path d="M18 20C18 19 19 18 20 18C21 18 22 19 22 20H18Z" fill="#FFFFFF" />

    <!-- Code analysis symbol (curly braces) -->
    <path d="M12 12L10 14L12 16M28 12L30 14L28 16" stroke="#FFD700" stroke-width="2" stroke-linecap="round" />

    <!-- Microchip/processor lines for AI processing -->
    <rect x="14" y="24" width="12" height="2" rx="1" fill="#FF6B6B" />
    <rect x="14" y="27" width="8" height="2" rx="1" fill="#FF6B6B" />
    <rect x="14" y="30" width="10" height="2" rx="1" fill="#FF6B6B" />

    <!-- Sparkle for "smart" AI -->
    <path d="M28 8L29 10L31 9L29 8L30 6L28 8Z" fill="#FFD700" />
</svg>
